<svg width="30" height="30" viewBox="0 0 30 30" fill="none" xmlns="http://www.w3.org/2000/svg">
<path d="M28.3975 20.9112L18.1532 2.07957C16.5072 -0.691349 12.495 -0.69503 10.8468 2.07957L0.603046 20.9112C-1.07952 23.7426 0.95756 27.3281 4.25535 27.3281H24.7443C28.0393 27.3281 30.08 23.7455 28.3975 20.9112ZM14.5 23.9297C13.5633 23.9297 12.8008 23.1672 12.8008 22.2305C12.8008 21.2937 13.5633 20.5312 14.5 20.5312C15.4367 20.5312 16.1992 21.2937 16.1992 22.2305C16.1992 23.1672 15.4367 23.9297 14.5 23.9297ZM16.1992 17.1328C16.1992 18.0695 15.4367 18.832 14.5 18.832C13.5633 18.832 12.8008 18.0695 12.8008 17.1328V8.63669C12.8008 7.69997 13.5633 6.93747 14.5 6.93747C15.4367 6.93747 16.1992 7.69997 16.1992 8.63669V17.1328Z" fill="#F55A6C"/>
</svg>
